<?xml version="1.0" encoding="utf-8"?>
<!-- Generator: Adobe Illustrator 25.2.0, SVG Export Plug-In . SVG Version: 6.00 Build 0)  -->
<svg version="1.1" id="Illustration" xmlns="http://www.w3.org/2000/svg" xmlns:xlink="http://www.w3.org/1999/xlink" x="0px"
	 y="0px" viewBox="0 0 2814.3 2800" style="enable-background:new 0 0 2814.3 2800;" xml:space="preserve">
<style type="text/css">
	.st0{fill:url(#SVGID_1_);}
	.st1{fill:url(#SVGID_2_);}
	.st2{fill:url(#SVGID_3_);}
	.st3{fill:url(#SVGID_4_);}
	.st4{fill:url(#SVGID_5_);}
	.st5{fill:url(#SVGID_6_);}
	.st6{fill:url(#SVGID_7_);}
	.st7{fill:url(#SVGID_8_);}
	.st8{fill:#F79E6D;}
	.st9{fill:url(#SVGID_9_);}
	.st10{fill:url(#SVGID_10_);}
	.st11{fill:url(#SVGID_11_);}
	.st12{fill:url(#SVGID_12_);}
	.st13{fill:url(#SVGID_13_);}
	.st14{fill:url(#SVGID_14_);}
	.st15{fill:url(#SVGID_15_);}
	.st16{fill:url(#SVGID_16_);}
	.st17{fill:url(#SVGID_17_);}
	.st18{fill:url(#SVGID_18_);}
	.st19{fill:#91B3FA;}
	.st20{fill:url(#SVGID_19_);}
	.st21{fill:url(#SVGID_20_);}
	.st22{fill:url(#SVGID_21_);}
	.st23{fill:url(#SVGID_22_);}
	.st24{fill:url(#SVGID_23_);}
	.st25{fill:url(#SVGID_24_);}
	.st26{fill:url(#SVGID_25_);}
	.st27{opacity:0.36;fill:#FFFFFF;enable-background:new    ;}
	.st28{fill:#BDD0FB;}
	.st29{fill:url(#SVGID_26_);}
</style>
<linearGradient id="SVGID_1_" gradientUnits="userSpaceOnUse" x1="3566.6248" y1="4279.3325" x2="1081.5643" y2="1193.0427" gradientTransform="matrix(1 0 0 1 -425.46 -655)">
	<stop  offset="0" style="stop-color:#DAE3FE"/>
	<stop  offset="1" style="stop-color:#E9EFFD"/>
</linearGradient>
<path class="st0" d="M2457.5,2407.2c-57.1,60.1-111.1,98.9-153.8,129.5c-501.6,359.9-1095.1,255-1221.3,229.4
	c-186.3-37.8-546.3-111-806.6-417.1c-393.8-463.1-332.5-1192.8-27-1674.5c55.9-88.1,351-577.1,951-655.5
	c363.1-47.5,786.3,48.3,1092.8,305C2935.9,862.9,2890.1,1951.8,2457.5,2407.2z"/>
<linearGradient id="SVGID_2_" gradientUnits="userSpaceOnUse" x1="2446.2036" y1="609.9921" x2="2087.6638" y2="1879.972" gradientTransform="matrix(0.9931 0.1175 -0.1175 0.9931 -232.6628 -868.0007)">
	<stop  offset="0" style="stop-color:#E1473D"/>
	<stop  offset="1" style="stop-color:#E9605A"/>
</linearGradient>
<path class="st1" d="M2396.5,1175.2c-25.7,93.8-372.4,49.3-728.3-80.1c-438.7-159.5-579-351.6-550.8-444.7
	c12.8-42.1,352.4-32.9,696.9,124.1S2413.5,1112.9,2396.5,1175.2z"/>
<linearGradient id="SVGID_3_" gradientUnits="userSpaceOnUse" x1="4511.6812" y1="-2505.8096" x2="1193.1202" y2="2955.9758">
	<stop  offset="0" style="stop-color:#FF928E"/>
	<stop  offset="1" style="stop-color:#FE7062"/>
</linearGradient>
<path class="st2" d="M2779.7,608.4v229.1c-36.9-14.3-79.1-18.6-125.5-16.1c-58.4,3.1-123.4,16.9-192.8,34.8
	c-14.1,3.6-28.4,7.5-42.9,11.4c-58.6,15.9-119.9,33.8-182.5,49.9c-8.7,2.2-17.4,4.4-26.1,6.6h0l-29.6-73.7l-2.9-7.1
	c5.4-4.5,10.8-8.8,16.2-13.2c31.9-25.5,63.8-48.5,95.7-69.3c7-4.6,14-9,21-13.3c57.6-35.7,115.1-64,172-85.5
	c13.6-5.2,27.2-9.9,40.8-14.3c12.3-4,24.6-7.6,36.8-11C2634.8,616.1,2708.4,607.2,2779.7,608.4z"/>
<linearGradient id="SVGID_4_" gradientUnits="userSpaceOnUse" x1="4454.0522" y1="-2278.2205" x2="1042.7517" y2="3336.1995" gradientTransform="matrix(1 0 0 1 -425.46 -655)">
	<stop  offset="0" style="stop-color:#FF928E"/>
	<stop  offset="1" style="stop-color:#FE7062"/>
</linearGradient>
<path class="st3" d="M1558.8,1180.8C-596.6,1771,96.5,3302.8,1682.6,2211l-9.6-27.9c-1473.6,844.3-1981.5-239.3-92.7-913.8
	L1558.8,1180.8z"/>
<linearGradient id="SVGID_5_" gradientUnits="userSpaceOnUse" x1="4953.6748" y1="-1983.4421" x2="1537.0347" y2="3639.7678" gradientTransform="matrix(1 0 0 1 -425.46 -655)">
	<stop  offset="0" style="stop-color:#FF928E"/>
	<stop  offset="1" style="stop-color:#FE7062"/>
</linearGradient>
<path class="st4" d="M1465.3,2212.2c48.3,39.7,79.2,76.8,100.9,165.2c0.4,1.5,1.9,2.4,3.3,2c0.7-0.2,1.4-0.6,1.7-1.3
	c40.3-67.9,93.5-126.7,145.1-193.3c2.2-2.9,1.7-7.1-1.2-9.3c-1.5-1.1-3.3-1.6-5.2-1.3c-88.6,14.8-167.6,35.5-242.9,33
	c-1.5-0.1-2.8,1.1-2.9,2.6C1464.2,2210.8,1464.6,2211.6,1465.3,2212.2z"/>
<linearGradient id="SVGID_6_" gradientUnits="userSpaceOnUse" x1="1432.3285" y1="2310.6074" x2="918.8986" y2="2798.6274" gradientTransform="matrix(1 0 0 1 -425.46 -655)">
	<stop  offset="0" style="stop-color:#0085A0"/>
	<stop  offset="1" style="stop-color:#005672"/>
</linearGradient>
<path class="st5" d="M938.5,1578.7l-77.6,119.4c36.1,70.3,76.2,109.2,116.3,127.6c7.2-43.8,32.8-80.2,51.5-101.8
	C957.2,1683.2,938.5,1578.7,938.5,1578.7z"/>
<linearGradient id="SVGID_7_" gradientUnits="userSpaceOnUse" x1="1688.6998" y1="2335.8899" x2="1105.6499" y2="2618.3398" gradientTransform="matrix(1 0 0 1 -425.46 -655)">
	<stop  offset="0" style="stop-color:#FEBBBA"/>
	<stop  offset="1" style="stop-color:#FF928E"/>
</linearGradient>
<path class="st6" d="M1205.2,1702.5c-79.4,47-136.2,44.3-176.4,21.4c-18.8,21.6-44.4,58-51.5,101.8c127.5,58.7,255.2-89,255.2-89
	L1205.2,1702.5z"/>
<linearGradient id="SVGID_8_" gradientUnits="userSpaceOnUse" x1="1691.4677" y1="2341.6045" x2="1108.4177" y2="2624.0547" gradientTransform="matrix(1 0 0 1 -425.46 -655)">
	<stop  offset="0" style="stop-color:#FEBBBA"/>
	<stop  offset="1" style="stop-color:#FF928E"/>
</linearGradient>
<path class="st7" d="M1209.5,1722.9c0,0-21.4-37.4,9.4-66.1c0,0,10-11.4,20.9,5.3c0,0,33.2-30.1,42.3-18s33.1,42.2,9.6,76.4
	C1267.9,1755.3,1220,1739.8,1209.5,1722.9z"/>
<path class="st8" d="M1242.1,1702.4c-3.4,0.1-6.7-0.7-9.7-2.4c-3-1.8-6.7-5.4-7.7-12.9c-0.4-2.2,1.1-4.4,3.4-4.8
	c2.2-0.4,4.4,1.1,4.8,3.4c0,0.1,0,0.3,0,0.4c0.4,3.4,1.6,5.6,3.7,6.9c2.8,1.7,7,1.4,10.2,0.7l-7.4-23.6c-0.6-2.2,0.6-4.5,2.8-5.1
	c2.1-0.6,4.4,0.5,5.1,2.7l8.7,27.6c0.7,2.1-0.4,4.3-2.4,5.1C1249.8,1701.6,1246,1702.3,1242.1,1702.4z"/>
<linearGradient id="SVGID_9_" gradientUnits="userSpaceOnUse" x1="496.8767" y1="3259.1279" x2="588.16" y2="3259.1279" gradientTransform="matrix(1 0 0 1 -425.46 -655)">
	<stop  offset="0" style="stop-color:#0085A0"/>
	<stop  offset="1" style="stop-color:#005672"/>
</linearGradient>
<path class="st9" d="M80.6,2504.3c-6.9,4.1-10.4,12.9-8.8,21.5c6.5,33.8,27.8,122.9,79.5,175.7c2.9,3.1,7.8,3.3,11,0.4
	c0.1-0.1,0.3-0.3,0.4-0.4c-13.1-13.6-29.3-37-48.3-76.6C85.2,2564.1,79.8,2526.5,80.6,2504.3z"/>
<linearGradient id="SVGID_10_" gradientUnits="userSpaceOnUse" x1="505.9868" y1="3253.436" x2="603.1495" y2="3253.436" gradientTransform="matrix(1 0 0 1 -425.46 -655)">
	<stop  offset="0" style="stop-color:#003F7D"/>
	<stop  offset="1" style="stop-color:#0D5872"/>
</linearGradient>
<path class="st10" d="M147.4,2503c0,0-33.3-18.1-66.6,1.1l-0.2,0.2c-0.8,22.2,4.6,59.8,33.8,120.7c19,39.6,35.2,62.9,48.3,76.6
	c1-1.1,1.8-2.4,2.2-3.8C174.6,2664,195.1,2570.2,147.4,2503z"/>
<linearGradient id="SVGID_11_" gradientUnits="userSpaceOnUse" x1="554.4327" y1="3155.1748" x2="625.9065" y2="3155.1748" gradientTransform="matrix(1 0 0 1 -425.46 -655)">
	<stop  offset="0" style="stop-color:#FEBBBA"/>
	<stop  offset="1" style="stop-color:#FF928E"/>
</linearGradient>
<path class="st11" d="M195.5,2505.1l-30.2,29c-5.3,5.2-13.5,5.9-19.7,1.9c-6.9-4.6-12.3-11.2-15.4-18.9c-2.4-5.7-1.2-12.3,2.9-16.9
	l30.2-33.2c5.9-6.5,16-7,22.5-1.1c1.2,1.1,2.2,2.3,3,3.7l9.4,15.9C202,2491.9,200.9,2500,195.5,2505.1z"/>
<linearGradient id="SVGID_12_" gradientUnits="userSpaceOnUse" x1="1597.76" y1="2931.3857" x2="1734.6332" y2="2931.3857" gradientTransform="matrix(1 0 0 1 -425.46 -655)">
	<stop  offset="0" style="stop-color:#0085A0"/>
	<stop  offset="1" style="stop-color:#005672"/>
</linearGradient>
<path class="st12" d="M1172.3,2359.7c7,3.9,16.4,2.7,23-3c26.1-22.3,93.1-84.9,113.5-155.9c1.3-4.1-0.9-8.4-5-9.8
	c-0.2-0.1-0.4-0.1-0.6-0.2c-5.4,18.1-17.6,43.8-42.7,79.9C1222,2326.1,1192.1,2349.4,1172.3,2359.7z"/>
<linearGradient id="SVGID_13_" gradientUnits="userSpaceOnUse" x1="1563.6599" y1="2930.1003" x2="1728.6599" y2="2930.1003" gradientTransform="matrix(1 0 0 1 -425.46 -655)">
	<stop  offset="0" style="stop-color:#003F7D"/>
	<stop  offset="1" style="stop-color:#0D5872"/>
</linearGradient>
<path class="st13" d="M1138.2,2302.3c0,0,0.7,37.9,33.8,57.3c0.1,0,0.2,0.1,0.3,0.1c19.7-10.3,49.7-33.5,88.2-89
	c25-36.1,37.3-61.7,42.7-79.9c-1.4-0.4-2.9-0.4-4.4,0C1264.7,2199.1,1173.1,2227.6,1138.2,2302.3z"/>
<linearGradient id="SVGID_14_" gradientUnits="userSpaceOnUse" x1="1519.953" y1="2925.3584" x2="1598.4159" y2="2925.3584" gradientTransform="matrix(1 0 0 1 -425.46 -655)">
	<stop  offset="0" style="stop-color:#FEBBBA"/>
	<stop  offset="1" style="stop-color:#FF928E"/>
</linearGradient>
<path class="st14" d="M1135.9,2239.4l31.6,27.5c5.6,4.8,7.1,12.9,3.6,19.5c-4,7.3-10.1,13.2-17.5,17c-5.5,2.9-12.1,2.3-17.1-1.4
	l-35.8-27.1c-7-5.3-8.4-15.3-3.1-22.3c1-1.3,2.1-2.4,3.4-3.3l15-10.8C1122.1,2234.2,1130.3,2234.5,1135.9,2239.4z"/>
<linearGradient id="SVGID_15_" gradientUnits="userSpaceOnUse" x1="1006.3071" y1="2702.9167" x2="509.2372" y2="3224.8469" gradientTransform="matrix(1 0 0 1 -425.46 -655)">
	<stop  offset="0" style="stop-color:#003F7D"/>
	<stop  offset="1" style="stop-color:#0D5872"/>
</linearGradient>
<path class="st15" d="M502.3,1961c0,0-61.6,209.9-101.5,302.2c0,0-69.6,10.6-112.7,35.8s-136,164.8-136,164.8s24.3,46,53.5,53.1
	L470,2333.7l210.9-245.3l-10-113.8L502.3,1961z"/>
<linearGradient id="SVGID_16_" gradientUnits="userSpaceOnUse" x1="1625.8478" y1="2518.5901" x2="1316.2977" y2="2712.8999" gradientTransform="matrix(1 0 0 1 -425.46 -655)">
	<stop  offset="0" style="stop-color:#003F7D"/>
	<stop  offset="1" style="stop-color:#0D5872"/>
</linearGradient>
<path class="st16" d="M506.1,1943.9l-18,57.5c0,0,16.4,150.7,206.4,125.3s213.9-56.4,213.9-56.4s-16.5,96.3,191.3,212
	c0,0,31.6-23.8,38.5-50.9l-145.6-240c-20.3-31.5-39-39.8-76-34c-81.8,12.8-234.8,29.5-258,25.5L506.1,1943.9z"/>
<linearGradient id="SVGID_17_" gradientUnits="userSpaceOnUse" x1="1297.92" y1="2169.1912" x2="784.4898" y2="2657.2107" gradientTransform="matrix(1 0 0 1 -425.46 -655)">
	<stop  offset="0" style="stop-color:#0085A0"/>
	<stop  offset="1" style="stop-color:#005672"/>
</linearGradient>
<path class="st17" d="M654.5,1516.4c-55.4,2.8-142.9,29.1-199.4,81.2c17.4,19.2,44.1,50.4,64.1,81.2c17.8-16.7,43.4-30.6,79.4-39.6
	c-31.1,116.3-67.9,227.1-112.7,330.2c-2.7,6.1,0,13.1,6.1,15.8c0.3,0.1,0.6,0.3,0.9,0.4c34.7,12.1,137,40.9,219-5.5l181.9-260.5
	c19.6-28,32.4-60.1,37.6-93.9l7.2-47C938.5,1578.7,775.2,1510.3,654.5,1516.4z"/>
<linearGradient id="SVGID_18_" gradientUnits="userSpaceOnUse" x1="965.0728" y1="2526.5767" x2="618.0728" y2="1913.2666" gradientTransform="matrix(1 0 0 1 -425.46 -655)">
	<stop  offset="0" style="stop-color:#FEBBBA"/>
	<stop  offset="1" style="stop-color:#FF928E"/>
</linearGradient>
<path class="st18" d="M555.3,1910.6c-7.9-17.5-35-33.8-47.9-40.8c-11.2-23.2-56.1-127.4,11.7-191c-19.9-30.8-46.7-62-64.1-81.2
	c-65.2,60-89.1,154.4,25.3,286.5c-6.2,32.5,14.1,70.4,25.1,75.7C510.5,1962.2,565.8,1933.8,555.3,1910.6z"/>
<path class="st19" d="M609,1639.3c-2.3,0-4.1-1.9-4.1-4.2c0-1.9,1.4-3.6,3.2-4l50.6-10.9c2.3-0.2,4.3,1.4,4.5,3.7
	c0.2,1.9-1,3.7-2.8,4.3l-50.6,10.9C609.6,1639.2,609.3,1639.2,609,1639.3z"/>
<linearGradient id="SVGID_19_" gradientUnits="userSpaceOnUse" x1="1184.5455" y1="2264.0996" x2="1220.8556" y2="2160.5295" gradientTransform="matrix(1 0 0 1 -425.46 -655)">
	<stop  offset="0" style="stop-color:#FEBBBA"/>
	<stop  offset="1" style="stop-color:#FF928E"/>
</linearGradient>
<path class="st20" d="M777.4,1447.2l-47.5,93c-2.9,5.7-2,12.5,2.2,17.3c11.5,12.8,38.7,33.6,86,18.7c5.2-1.7,9-6.2,9.8-11.6
	l12.4-84.5L777.4,1447.2z"/>
<linearGradient id="SVGID_20_" gradientUnits="userSpaceOnUse" x1="1287.8723" y1="2050.5205" x2="1128.5222" y2="2172.4507" gradientTransform="matrix(1 0 0 1 -425.46 -655)">
	<stop  offset="0" style="stop-color:#FEBBBA"/>
	<stop  offset="1" style="stop-color:#FF928E"/>
</linearGradient>
<path class="st21" d="M856.6,1339.2c0,0,27.9,64,29.7,97.6s9.1,55.4-29.7,62.2s-71.6-12.6-89.3-46.1c0,0-27.8-51.6-21.6-72.7
	S856.6,1339.2,856.6,1339.2z"/>
<linearGradient id="SVGID_21_" gradientUnits="userSpaceOnUse" x1="1175.6653" y1="1954.088" x2="1324.0653" y2="2145.168" gradientTransform="matrix(1 0 0 1 -425.46 -655)">
	<stop  offset="0" style="stop-color:#003F7D"/>
	<stop  offset="1" style="stop-color:#0D5872"/>
</linearGradient>
<path class="st22" d="M780.5,1428.9l2.2-1c2.7-1.2,3.9-4.3,2.7-7c0-0.1-0.1-0.2-0.1-0.3c-5.5-10.6-16.2-34.8-2.4-40.5
	c17.8-7.3,88.2-21.7,103.4-46.7c14.6-24,1.7-55-17.8-63.9c-1.3-0.6-2.8-0.1-3.5,1.1l-1.6,3.1c-0.7,1.3-2.3,1.8-3.6,1.1
	c-0.6-0.3-1.1-0.9-1.3-1.6l0,0c-0.4-1.4-1.9-2.2-3.3-1.8c-0.6,0.2-1.2,0.6-1.5,1.1c-4.7,7.5-17.3,19.6-51,25.8
	c-47.9,8.8-79.6,28.3-80.4,61.4c0,1.5-1.2,2.6-2.7,2.6c-0.5,0-1-0.2-1.4-0.4c-3.5-2.2-9.2-3.2-16.8,3.2
	c-13.2,11.1-7.8,39.8,21.1,63.4c1.1,0.9,1.4,2.5,0.5,3.7c-0.2,0.2-0.4,0.4-0.6,0.6c-5.2,3.4-13,11.5,7.2,22.3
	c20.9,11.2,36.5,10.3,42.5,9.3c1.4-0.2,2.4-1.6,2.2-3v-0.1l-6.4-29.1c-0.3-1.4,0.6-2.8,2-3.1c0.2,0,0.4-0.1,0.6-0.1L780.5,1428.9z"
	/>
<linearGradient id="SVGID_22_" gradientUnits="userSpaceOnUse" x1="1268.1598" y1="2024.7657" x2="1108.8198" y2="2146.6858" gradientTransform="matrix(1 0 0 1 -425.46 -655)">
	<stop  offset="0" style="stop-color:#FEBBBA"/>
	<stop  offset="1" style="stop-color:#FF928E"/>
</linearGradient>
<path class="st23" d="M781.8,1435c0,0-10.6-40.9-29-29.4s9.5,45.8,24.3,47.4L781.8,1435z"/>
<linearGradient id="SVGID_23_" gradientUnits="userSpaceOnUse" x1="2503.5063" y1="1918.3907" x2="2137.4966" y2="3250.281" gradientTransform="matrix(1 0 0 1 -425.4613 -654.9922)">
	<stop  offset="0" style="stop-color:#0085A0"/>
	<stop  offset="1" style="stop-color:#005672"/>
</linearGradient>
<circle class="st24" cx="1859.3" cy="2059.4" r="132.6"/>
<linearGradient id="SVGID_24_" gradientUnits="userSpaceOnUse" x1="1189.1942" y1="1817.1343" x2="2836.3445" y2="1451.1042" gradientTransform="matrix(1 0 0 1 -425.46 -655)">
	<stop  offset="0" style="stop-color:#0085A0"/>
	<stop  offset="1" style="stop-color:#005672"/>
</linearGradient>
<path class="st25" d="M2527.5,595.4c0,252.2-379.8,895.6-577.7,1212.9c-15.4,24.6-48.4,39.6-109.7,39.6c-29,0-17.6-15-33-39.6
	c-197.9-317.4-577.6-960.7-577.6-1212.9C1229.5,266.6,1520,0,1878.5,0S2527.5,266.6,2527.5,595.4z"/>
<linearGradient id="SVGID_25_" gradientUnits="userSpaceOnUse" x1="2446.0105" y1="965.029" x2="1225.7006" y2="3121.679" gradientTransform="matrix(1 0 0 1 -425.46 -655)">
	<stop  offset="0" style="stop-color:#0085A0"/>
	<stop  offset="1" style="stop-color:#005672"/>
</linearGradient>
<path class="st26" d="M2489.1,595.4c0,252.2-379.8,895.6-577.7,1212.9c-24.5,39.4-76.3,51.4-115.7,26.9c-10.9-6.8-20.1-16-26.9-26.9
	c-197.9-317.4-577.7-960.7-577.7-1212.9c0-328.8,290.6-595.4,649-595.4S2489.1,266.6,2489.1,595.4z"/>
<ellipse class="st19" cx="1856" cy="622.8" rx="396.1" ry="396.1"/>
<ellipse transform="matrix(0.7071 -0.7071 0.7071 0.7071 119.4972 1456.2568)" class="st27" cx="1817.6" cy="583.9" rx="288" ry="288"/>
<path class="st28" d="M1840.1,1125.2c-265.5,0-481.4-216-481.4-481.5c-0.2-4.8,3.6-8.8,8.3-8.9s8.8,3.6,8.9,8.3c0,0.2,0,0.4,0,0.6
	c0,256,208.2,464.2,464.2,464.2s464.2-208.2,464.2-464.2s-208.2-464.2-464.2-464.2c-148,0-283.7,68.1-372.3,186.9
	c-3,3.7-8.4,4.3-12.1,1.3c-3.5-2.8-4.3-7.9-1.7-11.7c91.9-123.2,232.7-193.9,386.2-193.9c265.5,0,481.4,216,481.4,481.5
	S2105.6,1125.2,1840.1,1125.2z"/>
<linearGradient id="SVGID_26_" gradientUnits="userSpaceOnUse" x1="4511.5459" y1="-2252.0889" x2="1094.9058" y2="3371.1211" gradientTransform="matrix(1 0 0 1 -425.46 -655)">
	<stop  offset="0" style="stop-color:#FF928E"/>
	<stop  offset="1" style="stop-color:#FE7062"/>
</linearGradient>
<path class="st29" d="M1121.8,645.1c-19.8,15.3-30.7,40.5-37.4,72.8c-10.4,50.4,2.1,102.7,31.8,144.6
	c218.2,307.3,740.3,468.7,1203.3,413c36.6-4.3,65.9-32.4,71.8-68.7l7.1-43.8c1.7-10.4-5.4-20.2-15.8-21.8c-1.6-0.2-3.1-0.3-4.7-0.2
	c-204.8,18.6-406.1-0.4-607.2-39.3c-468.9-90.8-663.7-391.5-643.9-437c2.5-5.7,5.6-11.8,10.7-15.4c13.2-9.3,36.2-17.5,55.5-20.6
	C1165.9,627.5,1136.8,633.5,1121.8,645.1z"/>
</svg>
