<svg id="Calque_1" data-name="Calque 1" xmlns="http://www.w3.org/2000/svg" viewBox="0 0 3000 3000"><defs><style>.cls-1{fill:#eb5878;}.cls-2{fill:#fdc439;}.cls-3{fill:#09abaa;}</style></defs><path class="cls-1" d="M2209.23,1285.18a1066,1066,0,0,1-45.08,308.06c-179.53-292.09-496.86-486-858.23-486a1009.64,1009.64,0,0,0-125.44,7.73c-26.79,3.35-53.06,8-79.07,13.39-237.23,50-444.06,184.43-589.34,371.94,80.63-356.74,340.26-642.9,676.39-754.18a.25.25,0,0,1,.26.26c71.09,130.33,209.15,218.42,367.82,218.42,143.72,0,270.45-72.38,346.17-182.62,0-.26.26-.26.26-.51,90.67,39.66,174.38,93.24,248.82,157.38C2189.14,1047.19,2209.23,1163.87,2209.23,1285.18Z"/><path class="cls-1" d="M1897.82,562.43a337.39,337.39,0,0,1-59.76,192.67c-61.56,89.63-164.58,148.36-281.52,148.36a341.52,341.52,0,0,1-341-341c0-188.54,152.74-341.28,341-341.28C1745.08,221.15,1897.82,373.89,1897.82,562.43Z"/><path class="cls-2" d="M2515.22,1737.23a1080.47,1080.47,0,0,1-21.37,213.53c-193.18,27.3-342.06,193.43-342.06,394.6a390.59,390.59,0,0,0,34,159.95,1010.88,1010.88,0,0,1-228.47,162.27c-239.28-25.24-453.85-135.48-614.57-301.1,383.27-13.91,712.45-246,872.92-579.28,8-16.49,15.45-33,22.66-50,53.06-126.21,82.42-265.3,82.42-411.6a1054.24,1054.24,0,0,0-26.52-237C2432.54,1266.64,2515.22,1491.76,2515.22,1737.23Z"/><path class="cls-2" d="M2891.54,2345.36A337.38,337.38,0,0,1,2831.78,2538c-61.56,89.64-164.59,148.37-281.52,148.37a340.1,340.1,0,0,1-299.05-177.47,293.31,293.31,0,0,1-21.38-47.65,332.7,332.7,0,0,1-20.6-115.91c0-164.33,115.91-301.36,270.19-333.82a339.3,339.3,0,0,1,70.84-7.47C2738.8,2004.07,2891.54,2156.82,2891.54,2345.36Z"/><path class="cls-3" d="M1850.94,2715.23a996.75,996.75,0,0,1-350.55,63.62c-282.82,0-538.59-118.74-722.5-310.37.26-.26.52-.26.52-.52a395.71,395.71,0,0,0,69.8-225.12c0-206.05-156.35-375.54-357-396.66a1052.08,1052.08,0,0,1,0-218.16c133.94-185.2,326.61-323.26,549.66-384.82-60,132.65-93.49,280.76-93.49,436.85,0,244.18,81.9,468.52,219.19,646.25,9,11.59,18.29,23.18,27.82,34.51C1357.43,2554.51,1589.25,2685.87,1850.94,2715.23Z"/><path class="cls-3" d="M790.77,2242.84c0,67-19.06,129.3-52.8,181.85a126.2,126.2,0,0,1-7,10.82c-61.56,89.63-164.59,148.36-281.52,148.36a341.52,341.52,0,0,1-341-341c0-188.54,152.74-341.28,341-341.28a349,349,0,0,1,49.45,3.61C664.05,1929.12,790.77,2071,790.77,2242.84Z"/></svg>