<svg xmlns="http://www.w3.org/2000/svg" viewBox="0 0 1894.75 2537.32"><defs><style>.cls-1{font-size:200px;font-family:CorbelLight, Corbel;}.cls-1,.cls-2{fill:#3d4548;}.cls-3{fill:#eb5878;}.cls-4{fill:#fdc439;}.cls-5{fill:#09abaa;}</style></defs><g id="Subtitle"><text class="cls-1" transform="translate(340.97 2489.47)">Stay connected</text></g><g id="Title"><path class="cls-2" d="M849.89,2083.48H755v393.36H649.5V2084.26H552.62V1989H849.89Z" transform="translate(-552.62 -255.27)"/><path class="cls-2" d="M1045.69,2476.84H893.59V2171.91h142.58v58.83H959v62h66.16v56.64H959v67.38h86.67Z" transform="translate(-552.62 -255.27)"/><path class="cls-2" d="M1303.5,2476.84h-64.43l-10.17-47.61h-80.3l-11.07,47.61H1073l87.16-304.93h66.9Zm-83.94-96.93-26.88-133.38-1,0-31,133.4Z" transform="translate(-552.62 -255.27)"/><path class="cls-2" d="M1716.49,2476.84h-81.63l-19.31-324.37h-1.27L1554,2476.84h-60.94l-57.65-326.27h-1.27l-21.89,326.27h-81.69l41-396.41h107.84l43.55,261.2h1.27l47.43-261.2h106.5Z" transform="translate(-552.62 -255.27)"/><path class="cls-2" d="M1913.59,2476.84h-152.1V2171.91h142.58v58.83h-77.15v62h66.16v56.64h-66.16v67.38h86.67Z" transform="translate(-552.62 -255.27)"/><path class="cls-2" d="M2111.58,2476.84H1959.49V2171.91h142.57v58.83h-77.15v62h66.17v56.64h-66.17v67.38h86.67Z" transform="translate(-552.62 -255.27)"/><path class="cls-2" d="M2447.38,2083.48h-94.93v393.36H2247V2084.26h-96.88V1989h297.27Z" transform="translate(-552.62 -255.27)"/></g><g id="Logo"><path class="cls-3" d="M1979.08,956.93a703,703,0,0,1-29.73,203.14C1831,967.46,1621.71,839.56,1383.4,839.56a666.83,666.83,0,0,0-82.71,5.09c-17.67,2.21-35,5.27-52.15,8.84-156.43,33-292.82,121.61-388.62,245.26,53.16-235.24,224.37-423.95,446-497.32a.17.17,0,0,1,.17.17,275.91,275.91,0,0,0,242.55,144c94.78,0,178.34-47.73,228.28-120.43,0-.17.17-.17.17-.34A652.63,652.63,0,0,1,1941.2,728.65,698.72,698.72,0,0,1,1979.08,956.93Z" transform="translate(-552.62 -255.27)"/><path class="cls-3" d="M1773.72,480.32a225,225,0,0,1-449.93,0c0-124.33,100.72-225,224.88-225C1673,255.27,1773.72,356,1773.72,480.32Z" transform="translate(-552.62 -255.27)"/><path class="cls-4" d="M2180.86,1255a712.35,712.35,0,0,1-14.1,140.81c-127.39,18-225.56,127.55-225.56,260.21a257.46,257.46,0,0,0,22.42,105.47,666.29,666.29,0,0,1-150.66,107c-157.79-16.64-299.28-89.34-405.27-198.56,252.74-9.17,469.81-162.2,575.63-382,5.27-10.87,10.19-21.74,15-33a705.61,705.61,0,0,0,36.86-427.69C2126.34,944.7,2180.86,1093.15,2180.86,1255Z" transform="translate(-552.62 -255.27)"/><path class="cls-4" d="M2429,1656a224.9,224.9,0,0,1-422.25,107.85,193.71,193.71,0,0,1-14.1-31.42,219.37,219.37,0,0,1-13.58-76.43A225,225,0,0,1,2204,1431C2328.29,1431,2429,1531.71,2429,1656Z" transform="translate(-552.62 -255.27)"/><path class="cls-5" d="M1742.81,1899.94a657.35,657.35,0,0,1-231.17,42c-186.49,0-355.16-78.3-476.43-204.67.17-.17.34-.17.34-.34a261,261,0,0,0,46-148.45c0-135.88-103.1-247.65-235.42-261.58a693.57,693.57,0,0,1,0-143.86c88.33-122.12,215.38-213.16,362.47-253.76-39.58,87.47-61.66,185.14-61.66,288.07,0,161,54,309,144.54,426.16,6,7.64,12.06,15.29,18.35,22.76C1417.37,1794,1570.24,1880.58,1742.81,1899.94Z" transform="translate(-552.62 -255.27)"/><path class="cls-5" d="M1043.7,1588.44a220.8,220.8,0,0,1-34.82,119.91,84,84,0,0,1-4.59,7.14,224.84,224.84,0,0,1-382.84-19.2,222.29,222.29,0,0,1-27.69-107.85c0-124.33,100.72-225.06,224.89-225.06a230.2,230.2,0,0,1,32.61,2.38C960.13,1381.56,1043.7,1475.14,1043.7,1588.44Z" transform="translate(-552.62 -255.27)"/></g></svg>